<?xml version="1.0" encoding="iso-8859-1"?>
<!-- Generator: Adobe Illustrator 19.0.0, SVG Export Plug-In . SVG Version: 6.00 Build 0)  -->
<svg version="1.1" id="Layer_1" xmlns="http://www.w3.org/2000/svg" xmlns:xlink="http://www.w3.org/1999/xlink" x="0px" y="0px"
	 viewBox="0 0 512 512" style="enable-background:new 0 0 512 512;" xml:space="preserve">
<g>
	<g>
		<path d="M256,0C114.842,0,0,114.842,0,256s114.842,256,256,256s256-114.842,256-256S397.158,0,256,0z M494.72,247.467H270.558
			L380.083,51.883C446.618,92.484,491.793,164.685,494.72,247.467z M256,17.067c39.322,0,76.425,9.609,109.175,26.513L256,238.541
			L146.825,43.58C179.576,26.675,216.678,17.067,256,17.067z M131.917,51.883l109.525,195.584H17.28
			C20.207,164.685,65.382,92.484,131.917,51.883z M17.28,264.533h224.162L131.917,460.117
			C65.382,419.516,20.207,347.315,17.28,264.533z M256,494.933c-39.322,0-76.424-9.609-109.175-26.513L256,273.459L365.175,468.42
			C332.425,485.325,295.322,494.933,256,494.933z M380.083,460.117L270.558,264.533H494.72
			C491.793,347.315,446.618,419.516,380.083,460.117z"/>
	</g>
</g>
<g>
</g>
<g>
</g>
<g>
</g>
<g>
</g>
<g>
</g>
<g>
</g>
<g>
</g>
<g>
</g>
<g>
</g>
<g>
</g>
<g>
</g>
<g>
</g>
<g>
</g>
<g>
</g>
<g>
</g>
</svg>
